HIERARCHY
ROOT Pelvis
{
	OFFSET 0.000000 0.000000 0.000000
	CHANNELS 6 Xposition Yposition Zposition Xrotation Yrotation Zrotation
	JOINT LeftUpLeg_virtual
	{
		OFFSET 0.000000 0.000000 0.000000
		CHANNELS 3 Xrotation Yrotation Zrotation
		JOINT LeftUpLeg
		{
			OFFSET 18.735201 -5.666702 -4.541200
			CHANNELS 3 Xrotation Yrotation Zrotation
			JOINT LeftLeg
			{
				OFFSET -0.021200 -31.938179 0.493100
				CHANNELS 3 Xrotation Yrotation Zrotation
				JOINT LeftFoot
				{
					OFFSET 0.021200 -31.938179 -4.336299
					CHANNELS 3 Xrotation Yrotation Zrotation
					JOINT LeftToeBase
					{
						OFFSET 0.943001 -26.722000 15.023500
						CHANNELS 3 Xrotation Yrotation Zrotation
						End Site
						{
							OFFSET 0 0 0
						}
					}
				}
			}
		}
	}
	JOINT RightUpLeg_virtual
	{
		OFFSET 0.000000 0.000000 0.000000
		CHANNELS 3 Xrotation Yrotation Zrotation
		JOINT RightUpLeg
		{
			OFFSET -18.735201 -5.666702 -4.541200
			CHANNELS 3 Xrotation Yrotation Zrotation
			JOINT RightLeg
			{
				OFFSET 0.018946 -31.938133 0.493100
				CHANNELS 3 Xrotation Yrotation Zrotation
				JOINT RightFoot
				{
					OFFSET -0.018946 -31.938126 -4.336299
					CHANNELS 3 Xrotation Yrotation Zrotation
					JOINT RightToeBase
					{
						OFFSET -0.943001 -26.722004 15.023500
						CHANNELS 3 Xrotation Yrotation Zrotation
						End Site
						{
							OFFSET 0 0 0
						}
					}
				}
			}
		}
	}
	JOINT Hips_virtual
	{
		OFFSET 0.000000 0.000000 0.000000
		CHANNELS 3 Xrotation Yrotation Zrotation
		JOINT Hips
		{
			OFFSET -0.000000 -0.000000 -0.000000
			CHANNELS 3 Xrotation Yrotation Zrotation
			JOINT Spine
			{
				OFFSET 0.000000 10.199997 -0.299500
				CHANNELS 3 Xrotation Yrotation Zrotation
				JOINT Spine1
				{
					OFFSET 0.000000 11.900002 -1.516600
					CHANNELS 3 Xrotation Yrotation Zrotation
					JOINT Spine2
					{
						OFFSET 0.000000 13.600006 -2.842500
						CHANNELS 3 Xrotation Yrotation Zrotation
						JOINT Neck_virtual
						{
							OFFSET 0.000000 0.000000 0.000000
							CHANNELS 3 Xrotation Yrotation Zrotation
							JOINT Neck
							{
								OFFSET 0.000000 9.624100 -2.890100
								CHANNELS 3 Xrotation Yrotation Zrotation
								JOINT Head
								{
									OFFSET 0.000000 14.068802 -1.351900
									CHANNELS 3 Xrotation Yrotation Zrotation
									End Site
									{
										OFFSET 0 0 0
									}
								}
							}
						}
						JOINT LeftShoulder_virtual
						{
							OFFSET 0.000000 0.000000 0.000000
							CHANNELS 3 Xrotation Yrotation Zrotation
							JOINT LeftShoulder
							{
								OFFSET 15.263000 10.923401 -0.547700
								CHANNELS 3 Xrotation Yrotation Zrotation
								JOINT LeftArm
								{
									OFFSET 25.438599 -2.830597 -13.032500
									CHANNELS 3 Xrotation Yrotation Zrotation
									JOINT LeftForeArm
									{
										OFFSET 29.960503 0.000000 0.000000
										CHANNELS 3 Xrotation Yrotation Zrotation
										JOINT LeftHand
										{
											OFFSET 27.849251 0.000000 0.000000
											CHANNELS 3 Xrotation Yrotation Zrotation
											End Site
											{
												OFFSET 0 0 0
											}
										}
									}
								}
							}
						}
						JOINT RightShoulder_virtual
						{
							OFFSET 0.000000 0.000000 0.000000
							CHANNELS 3 Xrotation Yrotation Zrotation
							JOINT RightShoulder
							{
								OFFSET -15.263000 10.923401 -0.547700
								CHANNELS 3 Xrotation Yrotation Zrotation
								JOINT RightArm
								{
									OFFSET -25.438599 -2.830597 -13.032500
									CHANNELS 3 Xrotation Yrotation Zrotation
									JOINT RightForeArm
									{
										OFFSET -29.960503 0.000000 0.000000
										CHANNELS 3 Xrotation Yrotation Zrotation
										JOINT RightHand
										{
											OFFSET -27.849251 0.000000 0.000000
											CHANNELS 3 Xrotation Yrotation Zrotation
											End Site
											{
												OFFSET 0 0 0
											}
										}
									}
								}
							}
						}
					}
				}
			}
		}
	}
}
MOTION
Frames: 8
Frame Time: 0.03333333
-0.682601 134.644791 5.744991 0.000000 0.000000 0.000000 0.081261 -9.675999 2.396781 -35.755736 3.761178 6.475108 57.813638 -5.309935 -1.399383 34.369468 11.893783 -1.997211 0.000000 0.000000 0.000000 0.403912 -8.184908 -0.576886 -19.596578 -6.367687 -2.453405 39.011127 -10.338511 1.369110 31.559275 5.191234 18.762910 0.000000 0.000000 0.000000 -1.031647 -9.246023 1.184053 -2.051269 4.399065 -0.141427 -0.313725 -0.934847 -4.149650 -5.239512 0.635649 -1.710282 0.000000 0.000000 0.000000 -6.561440 -0.114492 -0.075565 -4.849102 -0.443737 -0.892501 0.000000 0.000000 0.000000 -5.987569 0.404223 -1.017697 8.491873 12.113016 33.308049 -59.674400 -32.406543 2.464238 -24.761637 -25.310545 10.644777 0.000000 0.000000 0.000000 -6.747482 0.549686 0.090964 3.360400 -1.940485 -31.897940 -65.020894 31.622348 -0.700248 -32.452889 32.764861 8.749547 0.000000 0.000000 0.000000 
-0.700831 134.795593 3.804998 0.000000 0.000000 0.000000 0.036186 -10.596884 2.221423 -36.807920 5.327089 5.502178 58.933584 -4.606674 -1.936637 31.040925 13.699151 -0.625706 0.000000 0.000000 0.000000 0.448952 -9.715818 -0.082542 -19.856980 -5.525926 -3.959175 42.332628 -7.377070 2.284642 34.247911 9.643981 23.025608 0.000000 0.000000 0.000000 -0.720967 -10.336633 1.162704 -2.265756 3.960755 -0.734941 -0.486978 -0.377066 -3.949217 -5.144239 1.020047 -1.630608 0.000000 0.000000 0.000000 -6.241244 0.224168 0.083034 -5.017124 -0.462820 -0.743460 0.000000 0.000000 0.000000 -6.269878 0.685547 -0.950276 8.818970 11.399046 33.752695 -63.212219 -32.157716 -0.067108 -25.976123 -28.503768 10.881270 0.000000 0.000000 0.000000 -6.515889 0.915898 0.172442 2.974289 -3.068660 -31.594444 -66.012289 30.662625 -0.502327 -32.248632 32.602405 8.491943 0.000000 0.000000 0.000000 
-0.612062 135.460953 1.003494 0.000000 0.000000 0.000000 0.409592 -13.514353 1.794041 -38.504314 6.720351 3.478169 60.224182 -4.817074 -1.887598 22.671819 13.255960 -0.023582 0.000000 0.000000 0.000000 0.676087 -12.911445 0.138568 -20.531200 -4.605545 -5.048300 46.348943 -4.010494 2.850238 36.873777 13.049445 24.380029 0.000000 0.000000 0.000000 -0.037469 -13.222162 0.886189 -2.086772 3.558533 -1.103372 -0.530899 0.679242 -3.504840 -4.890614 1.998665 -1.277337 0.000000 0.000000 0.000000 -5.740633 1.199784 0.527676 -4.884953 -0.491347 -0.442405 0.000000 0.000000 0.000000 -6.429950 1.560432 -0.641251 9.985669 11.334959 33.717314 -70.263850 -30.821037 -5.778350 -27.228124 -33.632671 12.252562 0.000000 0.000000 0.000000 -6.220387 1.935468 0.529069 2.447954 -4.455884 -31.704837 -68.852596 29.975163 1.171107 -31.887278 32.636201 7.804648 0.000000 0.000000 0.000000 
-0.423361 136.645203 -2.216261 0.000000 0.000000 0.000000 1.098794 -18.223469 1.270829 -39.862114 7.659047 1.381260 60.572959 -5.862156 -1.483114 12.482143 10.503543 -1.124864 0.000000 0.000000 0.000000 1.165001 -17.536157 0.003622 -19.921976 -3.943013 -5.590890 47.042969 -1.997509 2.504257 36.957375 12.895281 22.741072 0.000000 0.000000 0.000000 0.922267 -17.785497 0.557727 -1.561377 3.277130 -0.800489 -0.484288 2.147249 -2.782470 -4.475601 3.537734 -0.709311 0.000000 0.000000 0.000000 -5.122043 2.772209 1.152221 -4.544773 -0.523791 -0.045665 0.000000 0.000000 0.000000 -6.307329 3.029928 -0.128826 11.764950 12.147580 33.405185 -77.385360 -28.339150 -12.535379 -28.112048 -38.877662 14.921665 0.000000 0.000000 0.000000 -5.840073 3.562051 1.090635 2.096039 -5.568424 -32.275137 -72.098753 30.067579 4.036056 -31.256523 32.251737 6.486196 0.000000 0.000000 0.000000 
-0.299445 138.084839 -5.589512 0.000000 0.000000 0.000000 1.692980 -24.240485 0.681926 -41.180761 8.735440 0.364046 59.540576 -6.357771 -1.494325 5.837904 7.950030 -2.597106 0.000000 0.000000 0.000000 1.913787 -23.728852 -0.276670 -17.131762 -3.415448 -5.863115 42.452429 -1.375808 1.346340 36.507412 10.217640 19.307738 0.000000 0.000000 0.000000 1.967758 -23.775250 0.387338 -1.068632 3.199179 -0.482263 -0.359714 3.979759 -1.835184 -3.896196 5.579262 0.003250 0.000000 0.000000 0.000000 -4.424740 4.890270 1.826121 -4.076965 -0.554750 0.369444 0.000000 0.000000 0.000000 -5.835416 5.067498 0.530920 13.805639 13.907797 33.047450 -82.594172 -25.523034 -18.580249 -28.206458 -42.679113 18.907705 0.000000 0.000000 0.000000 -5.348406 5.712270 1.739006 2.025554 -6.026254 -33.049424 -74.171729 30.976458 7.009630 -30.462189 31.622102 4.591984 0.000000 0.000000 0.000000 
-0.217985 139.276794 -9.060474 0.000000 0.000000 0.000000 1.888994 -31.139369 -0.001681 -43.417498 9.997375 0.669848 58.430889 -5.058568 -1.952073 4.322137 7.897402 -1.208973 0.000000 0.000000 0.000000 2.558019 -31.342451 -0.622692 -13.725766 -2.871379 -6.752168 33.719674 -1.074523 -0.507705 39.157546 6.972997 15.478539 0.000000 0.000000 0.000000 3.010091 -30.943076 0.490039 -0.657439 2.979050 -0.570375 -0.131127 6.091567 -0.784032 -3.180831 7.990532 0.707443 0.000000 0.000000 0.000000 -3.657657 7.403928 2.374091 -3.524535 -0.579722 0.737513 0.000000 0.000000 0.000000 -5.019819 7.572286 1.235407 15.735217 16.493256 32.835086 -85.150199 -23.390184 -22.923612 -27.355746 -44.095011 23.982218 0.000000 0.000000 0.000000 -4.747927 8.233706 2.317442 2.286823 -5.921088 -33.658151 -73.745402 32.171516 8.593677 -29.798278 31.326731 2.443859 0.000000 0.000000 0.000000 
-0.113858 139.729019 -12.765228 0.000000 0.000000 0.000000 1.671152 -39.071930 -0.800845 -45.461889 10.389116 1.012228 57.204754 -2.421227 -1.989883 6.246362 10.149850 3.067765 0.000000 0.000000 0.000000 2.815308 -39.848328 -0.760926 -11.713647 -2.468987 -8.697245 23.997844 -0.211388 -2.504166 45.959462 3.933204 12.292561 0.000000 0.000000 0.000000 3.846600 -39.083087 0.881374 -0.221864 2.766059 -0.732601 0.229087 8.360280 0.071083 -2.421478 10.592743 1.232238 0.000000 0.000000 0.000000 -2.844678 10.129345 2.649170 -2.933579 -0.614145 1.017737 0.000000 0.000000 0.000000 -4.051325 10.359474 1.835288 17.254552 19.484146 32.483895 -85.959570 -22.727424 -26.041093 -26.320836 -43.279053 28.974127 0.000000 0.000000 0.000000 -3.976779 10.946092 2.671786 2.845205 -5.369357 -33.785712 -70.750159 32.966980 8.005165 -29.420073 31.834422 0.464671 0.000000 0.000000 0.000000 
-0.289807 138.988205 -16.523632 0.000000 0.000000 0.000000 1.124158 -47.743500 -1.513995 -45.205703 9.514658 0.271873 53.808189 0.301145 -1.124570 9.794039 12.556165 6.682034 0.000000 0.000000 0.000000 2.482886 -48.609842 -0.723243 -11.747722 -2.115565 -11.238735 16.307550 1.182950 -3.531209 52.943969 0.941193 10.583344 0.000000 0.000000 0.000000 4.246047 -47.634948 1.340445 -0.096318 2.692402 -0.794133 0.717859 10.555860 0.525946 -1.703793 13.149744 1.505748 0.000000 0.000000 0.000000 -2.004179 12.830603 2.590265 -2.306255 -0.662115 1.184384 0.000000 0.000000 0.000000 -3.046910 13.160491 2.180342 18.246920 22.233140 31.593699 -86.288368 -23.971240 -28.546152 -25.234653 -42.141905 33.050906 0.000000 0.000000 0.000000 -3.125397 13.610141 2.738623 3.482582 -4.771173 -33.274581 -66.932616 32.496298 5.786329 -29.489646 34.273370 -0.952413 0.000000 0.000000 0.000000 
